<?xml version="1.0" encoding="utf-8"?>
<!-- Generator: Adobe Illustrator 17.0.0, SVG Export Plug-In . SVG Version: 6.00 Build 0)  -->
<!DOCTYPE svg PUBLIC "-//W3C//DTD SVG 1.1//EN" "http://www.w3.org/Graphics/SVG/1.1/DTD/svg11.dtd">
<svg version="1.1" id="Capa_1" xmlns="http://www.w3.org/2000/svg" xmlns:xlink="http://www.w3.org/1999/xlink" x="0px" y="0px"
	 width="800px" height="800px" viewBox="0 0 800 800" enable-background="new 0 0 800 800" xml:space="preserve">
<g>
	<g>
		<path fill="#F62036" d="M400,800c220.555,0,400-179.445,400-400S620.555,0,400,0S0,179.445,0,400S179.445,800,400,800z
			 M400,39.967c198.532,0,360.033,161.501,360.033,360.033S598.532,760.033,400,760.033S39.967,598.532,39.967,400
			S201.468,39.967,400,39.967z"/>
		<path fill="#F62036" d="M294.127,505.873c3.915,3.915,8.972,5.873,14.193,5.873c5.22,0,10.277-1.958,14.192-5.873l77.651-77.651
			l77.651,77.651c3.915,3.915,8.972,5.873,14.193,5.873s10.277-1.958,14.193-5.873c7.83-7.83,7.83-20.392,0-28.222L428.222,400
			l77.651-77.651c7.83-7.83,7.83-20.392,0-28.222c-7.83-7.83-20.392-7.83-28.222,0L400,371.778l-77.651-77.651
			c-7.83-7.83-20.392-7.83-28.222,0s-7.83,20.392,0,28.222L371.778,400l-77.651,77.651
			C286.297,485.481,286.297,498.042,294.127,505.873z"/>
	</g>
</g>
</svg>
