<?xml version="1.0" encoding="utf-8"?>
<!-- Generator: Adobe Illustrator 17.0.0, SVG Export Plug-In . SVG Version: 6.00 Build 0)  -->
<!DOCTYPE svg PUBLIC "-//W3C//DTD SVG 1.1//EN" "http://www.w3.org/Graphics/SVG/1.1/DTD/svg11.dtd">
<svg version="1.1" id="Layer_1" xmlns="http://www.w3.org/2000/svg" xmlns:xlink="http://www.w3.org/1999/xlink" x="0px" y="0px"
	 width="631.967px" height="800px" viewBox="0 0 631.967 800" enable-background="new 0 0 631.967 800" xml:space="preserve">
<linearGradient id="SVGID_1_" gradientUnits="userSpaceOnUse" x1="167.9215" y1="449.941" x2="162.282" y2="444.3016">
	<stop  offset="0.0049" style="stop-color:#E9A22A"/>
	<stop  offset="1" style="stop-color:#EE4758"/>
</linearGradient>
<path opacity="0.2" fill="#FFFFFF" stroke="url(#SVGID_1_)" stroke-width="3" stroke-miterlimit="10" enable-background="new    " d="
	M163.769,447.389h2.636c-0.875-1.551-1.344-2.504-1.344-2.504C164.63,445.746,164.199,446.569,163.769,447.389z"/>
<linearGradient id="SVGID_2_" gradientUnits="userSpaceOnUse" x1="485.2457" y1="449.7354" x2="479.515" y2="444.0046">
	<stop  offset="0.0049" style="stop-color:#E9A22A"/>
	<stop  offset="1" style="stop-color:#EE4758"/>
</linearGradient>
<path opacity="0.2" fill="#FFFFFF" stroke="url(#SVGID_2_)" stroke-width="3" stroke-miterlimit="10" enable-background="new    " d="
	M482.333,444.884c-0.374,0.862-0.75,1.685-1.125,2.504h2.394C482.779,445.833,482.333,444.884,482.333,444.884z"/>
<linearGradient id="SVGID_3_" gradientUnits="userSpaceOnUse" x1="322.3643" y1="532.7336" x2="309.2267" y2="519.5959">
	<stop  offset="0.0049" style="stop-color:#E9A22A"/>
	<stop  offset="1" style="stop-color:#EE4758"/>
</linearGradient>
<path opacity="0.2" fill="#FFFFFF" stroke="url(#SVGID_3_)" stroke-width="3" stroke-miterlimit="10" enable-background="new    " d="
	M315.796,525.884c-3.902,0-7.768,0.114-11.599,0.32h23.197C323.563,525.998,319.698,525.884,315.796,525.884z"/>
<linearGradient id="SVGID_4_" gradientUnits="userSpaceOnUse" x1="294.8024" y1="495.9045" x2="287.7469" y2="488.8489">
	<stop  offset="0.0049" style="stop-color:#E9A22A"/>
	<stop  offset="1" style="stop-color:#EE4758"/>
</linearGradient>
<path opacity="0.2" fill="#FFFFFF" stroke="url(#SVGID_4_)" stroke-width="3" stroke-miterlimit="10" enable-background="new    " d="
	M288.954,492.949c1.254,0.199,2.511,0.393,3.774,0.565c-1.256-2.539-1.933-4.188-1.933-4.188
	C290.178,490.58,289.565,491.78,288.954,492.949z"/>
<linearGradient id="SVGID_5_" gradientUnits="userSpaceOnUse" x1="354.8088" y1="493.0013" x2="350.3026" y2="488.4951">
	<stop  offset="0.0049" style="stop-color:#E9A22A"/>
	<stop  offset="1" style="stop-color:#EE4758"/>
</linearGradient>
<path opacity="0.2" fill="#FFFFFF" stroke="url(#SVGID_5_)" stroke-width="3" stroke-miterlimit="10" enable-background="new    " d="
	M352.212,491.151c0.527-0.115,1.05-0.244,1.575-0.364c-0.464-0.922-0.713-1.462-0.713-1.462
	C352.787,489.953,352.5,490.545,352.212,491.151z"/>
<linearGradient id="SVGID_6_" gradientUnits="userSpaceOnUse" x1="473.0283" y1="522.8483" x2="469.2986" y2="519.1185">
	<stop  offset="0.0049" style="stop-color:#E9A22A"/>
	<stop  offset="1" style="stop-color:#EE4758"/>
</linearGradient>
<path opacity="0.2" fill="#FFFFFF" stroke="url(#SVGID_6_)" stroke-width="3" stroke-miterlimit="10" enable-background="new    " d="
	M470.432,523.045c0.268-0.595,0.628-1.182,1.119-1.743c0.676-0.772,1.384-1.564,2.103-2.373c-0.319-0.137-0.63-0.298-0.928-0.49
	c-0.787,1.553-1.603,3.093-2.448,4.62C470.33,523.052,470.381,523.052,470.432,523.045z"/>
<linearGradient id="SVGID_7_" gradientUnits="userSpaceOnUse" x1="512.1515" y1="633.4743" x2="120.8201" y2="242.1429">
	<stop  offset="0.0049" style="stop-color:#E9A22A"/>
	<stop  offset="1" style="stop-color:#EE4758"/>
</linearGradient>
<path fill="#FFFFFF" stroke="url(#SVGID_7_)" stroke-width="3" stroke-miterlimit="10" d="M584.145,417.216
	c-0.594-10.917-1.761-21.669-3.463-32.224h-1.961v-10.904c-0.193-0.973-0.401-1.94-0.603-2.909
	c-2.745-13.123-6.319-25.91-10.678-38.287c-1.159-3.29-2.373-6.551-3.64-9.782c-7.098-18.1-15.874-35.26-26.124-51.251
	c1.858,12.44,2.838,25.195,2.838,38.197c0,0.387-0.012,0.772-0.014,1.159c-0.032,7.308-0.373,14.538-1.002,21.678
	c-0.803,9.106-2.078,18.064-3.805,26.845c-1.69,8.598-3.813,17.024-6.338,25.255c-1.204,3.926-2.498,7.809-3.884,11.643
	c-5.38,14.886-12.099,29.057-20.013,42.335c-8.073,13.545-17.385,26.159-27.757,37.67c-4.527,5.025-9.253,9.842-14.172,14.43
	c-4.097,3.821-8.323,7.485-12.674,10.984c-20.587,16.553-43.926,29.388-69.146,37.596h-130.45
	c-20.266-6.596-39.313-16.182-56.697-28.284c-8.822-6.141-17.217-12.923-25.123-20.295c-15.492-14.448-29.103-31.144-40.409-49.607
	c-0.508-0.83-1.021-1.656-1.519-2.493c-4.626-7.762-8.844-15.829-12.627-24.165c-4.355-9.596-8.123-19.553-11.27-29.812
	c-1.059-3.452-2.05-6.937-2.965-10.456c-3.494-13.443-5.919-27.361-7.178-41.644c-0.291-3.295-0.527-6.606-0.692-9.938
	c-0.211-4.271-0.324-8.571-0.324-12.899c0-13.001,0.979-25.756,2.838-38.197c-8.84,13.792-16.577,28.457-23.094,43.841
	c-2.212,5.222-4.286,10.525-6.21,15.908v1.285h-0.461c-2.458,6.979-4.663,14.089-6.617,21.315
	c-2.716,10.047-4.938,20.318-6.626,30.785c-0.399,2.471-0.76,4.957-1.099,7.449c-0.301,2.21-0.579,4.428-0.833,6.655v39.874v0.191
	v30.045c0.838,7.378,1.933,14.67,3.284,21.864c0.367,1.956,0.766,3.9,1.17,5.841c2.844,13.662,6.591,26.958,11.182,39.809
	c0.349,0.978,0.697,1.956,1.056,2.929c5.327,14.435,11.708,28.299,19.055,41.478c1.377,2.469,2.785,4.916,4.229,7.337
	c7.141,11.978,15.104,23.336,23.777,34.017c5.924,7.296,12.174,14.278,18.749,20.9c5.181,5.218,10.55,10.225,16.105,14.993
	c4.227-5.221,8.889-10.227,13.945-14.993c4.042-3.81,8.344-7.462,12.874-10.95c6.416-4.94,13.309-9.536,20.613-13.763
	c6.037-3.493,12.357-6.729,18.934-9.686c25.66-11.535,55.192-18.818,86.827-20.517c4.734-0.254,9.511-0.395,14.333-0.395
	c4.822,0,9.599,0.141,14.333,0.395c37.879,2.035,72.745,12.074,101.552,27.836c14.146,7.74,26.841,16.848,37.696,27.08
	c5.056,4.766,9.718,9.772,13.945,14.993c5.556-4.768,10.924-9.775,16.106-14.993c10.453-10.528,20.109-21.95,28.88-34.141
	c4.82-6.701,9.383-13.625,13.645-20.775c2.265-3.799,4.433-7.671,6.533-11.589c6.379-11.901,11.992-24.331,16.75-37.226
	c1.773-4.802,3.423-9.67,4.956-14.595c3.131-10.056,5.754-20.36,7.842-30.876v-3.108h0.609c1.467-7.812,2.644-15.737,3.505-23.765
	c0.999-9.315,1.56-18.771,1.706-28.335c0.025-1.598,0.065-3.191,0.065-4.794C584.606,428.481,584.45,422.827,584.145,417.216z
	 M283.314,547.369c0.755-1.444,1.513-2.927,2.275-4.478c0,0,0.836,2.038,2.388,5.176
	C286.417,547.855,284.864,547.615,283.314,547.369z M361.484,545.147c0.355-0.749,0.71-1.48,1.066-2.256
	c0,0,0.307,0.666,0.881,1.806C362.781,544.846,362.135,545.005,361.484,545.147z"/>
<linearGradient id="SVGID_8_" gradientUnits="userSpaceOnUse" x1="93.1349" y1="791.3459" x2="64.4631" y2="762.6741">
	<stop  offset="0.0049" style="stop-color:#E9A22A"/>
	<stop  offset="1" style="stop-color:#EE4758"/>
</linearGradient>
<circle fill="#FFFFFF" stroke="url(#SVGID_8_)" stroke-width="3" stroke-miterlimit="10" cx="78.799" cy="777.01" r="18.774"/>
<linearGradient id="SVGID_9_" gradientUnits="userSpaceOnUse" x1="131.457" y1="801.2675" x2="83.2355" y2="753.046">
	<stop  offset="0.0049" style="stop-color:#E9A22A"/>
	<stop  offset="1" style="stop-color:#EE4758"/>
</linearGradient>
<path fill="#FFFFFF" stroke="url(#SVGID_9_)" stroke-width="3" stroke-miterlimit="10" d="M144.904,782.827
	c0,14.019-41.02,13.75-51.827,13.75S80.385,786.27,80.385,772.25c0-14.019,8.232-27.5,19.038-27.5S144.904,768.808,144.904,782.827z
	"/>
<linearGradient id="SVGID_10_" gradientUnits="userSpaceOnUse" x1="240.4685" y1="811.0225" x2="155.3863" y2="725.9404">
	<stop  offset="0.0049" style="stop-color:#E9A22A"/>
	<stop  offset="1" style="stop-color:#EE4758"/>
</linearGradient>
<path fill="#FFFFFF" stroke="url(#SVGID_10_)" stroke-width="3" stroke-miterlimit="10" d="M115.289,796.577
	c-0.869-0.15,141.448-3.017,144.903-7.404c5.346-6.787-20.469-95.295-15.865-84.615c0,0-27.526-8.112-25.384-2.115
	c5.288,14.808,15.215,52.444,6.346,66.634c-5.288,8.461-37.019-2.115-37.019-2.115s-26.704-11.149-35.961-12.692
	C120.577,748.981,106.828,774.366,115.289,796.577z"/>
<g>
	<linearGradient id="SVGID_11_" gradientUnits="userSpaceOnUse" x1="573.7919" y1="791.3459" x2="545.1201" y2="762.6741">
		<stop  offset="0.0049" style="stop-color:#E9A22A"/>
		<stop  offset="1" style="stop-color:#EE4758"/>
	</linearGradient>
	<circle fill="#FFFFFF" stroke="url(#SVGID_11_)" stroke-width="3" stroke-miterlimit="10" cx="559.456" cy="777.01" r="18.774"/>
	<linearGradient id="SVGID_12_" gradientUnits="userSpaceOnUse" x1="551.2716" y1="797.5195" x2="510.546" y2="756.7939">
		<stop  offset="0.0049" style="stop-color:#E9A22A"/>
		<stop  offset="1" style="stop-color:#EE4758"/>
	</linearGradient>
	<path fill="#FFFFFF" stroke="url(#SVGID_12_)" stroke-width="3" stroke-miterlimit="10" d="M493.351,782.827
		c0,14.019,41.02,13.75,51.827,13.75s12.692-10.307,12.692-24.327c0-14.019-8.232-27.5-19.038-27.5S493.351,768.808,493.351,782.827
		z"/>
	<linearGradient id="SVGID_13_" gradientUnits="userSpaceOnUse" x1="496.7566" y1="824.9104" x2="383.8987" y2="712.0525">
		<stop  offset="0.0049" style="stop-color:#E9A22A"/>
		<stop  offset="1" style="stop-color:#EE4758"/>
	</linearGradient>
	<path fill="#FFFFFF" stroke="url(#SVGID_13_)" stroke-width="3" stroke-miterlimit="10" d="M522.966,796.577
		c0.87-0.15-141.448-3.017-144.903-7.404c-5.346-6.787,20.469-95.295,15.865-84.615c0,0,27.526-8.112,25.384-2.115
		c-5.288,14.808-15.215,52.444-6.346,66.634c5.288,8.461,37.019-2.115,37.019-2.115s26.704-11.149,35.961-12.692
		C517.678,748.981,531.427,774.366,522.966,796.577z"/>
</g>
<linearGradient id="SVGID_14_" gradientUnits="userSpaceOnUse" x1="402.3876" y1="742.6375" x2="232.0906" y2="572.3404">
	<stop  offset="0.0049" style="stop-color:#E9A22A"/>
	<stop  offset="1" style="stop-color:#EE4758"/>
</linearGradient>
<path fill="#FFFFFF" stroke="url(#SVGID_14_)" stroke-width="3" stroke-miterlimit="10" d="M484.764,657.989
	c-34.089-42.111-96.353-70.304-167.525-70.304s-133.436,28.194-167.525,70.304c45.897,39.389,104.136,62.964,167.525,62.964
	S438.867,697.378,484.764,657.989z"/>
<linearGradient id="SVGID_15_" gradientUnits="userSpaceOnUse" x1="378.4235" y1="115.9216" x2="292.5765" y2="30.0746">
	<stop  offset="0.0049" style="stop-color:#E9A22A"/>
	<stop  offset="1" style="stop-color:#EE4758"/>
</linearGradient>
<path fill="#FFFFFF" stroke="url(#SVGID_15_)" stroke-width="3" stroke-miterlimit="10" d="M397.009,57.508
	c-19.652,8.539-64.075,46.616-74.651,80.462C303.32,99.893,401.708-29.844,376.913-1.722
	c-19.652,22.289-76.635,93.154-61.827,146.038c-1.047,2.665,0.054,1.119-0.636,3.818c-6.9-34.49-48.679-58.288-65.073-67.279
	c-21.591-11.84,54.361,41.488,63.619,75.198c-0.342,3.14-0.39,6.286-0.124,9.429c-0.182,3.109-0.198,6.06-0.006,8.803
	c0.081,1.162,4.966,1.142,4.874,0c-0.036-0.445-0.055-0.908-0.081-1.363c0.718-0.123,1.23-0.372,1.139-0.752
	c-0.253-1.058-0.451-2.12-0.624-3.183c0.768-3.612,0.721-7.239-0.014-10.847c0.439-4.06,5.463-3.053,6.313-7.478
	C338.007,105.524,424.079,45.745,397.009,57.508z"/>
<linearGradient id="SVGID_16_" gradientUnits="userSpaceOnUse" x1="466.2657" y1="490.8055" x2="165.6425" y2="190.1823">
	<stop  offset="0.0049" style="stop-color:#E9A22A"/>
	<stop  offset="1" style="stop-color:#EE4758"/>
</linearGradient>
<path fill="#FFFFFF" stroke="url(#SVGID_16_)" stroke-width="3" stroke-miterlimit="10" d="M315.954,550.665
	c123.728,0,224.029-107.423,224.029-239.936c0-13.001-0.979-25.756-2.838-38.197c-48.323-75.389-129.359-124.845-221.191-124.845
	S143.086,197.143,94.763,272.532c-1.858,12.441-2.838,25.195-2.838,38.197C91.925,443.242,192.227,550.665,315.954,550.665z"/>
<linearGradient id="SVGID_17_" gradientUnits="userSpaceOnUse" x1="433.9008" y1="334.9958" x2="198.0092" y2="99.1042">
	<stop  offset="0.0049" style="stop-color:#E9A22A"/>
	<stop  offset="1" style="stop-color:#EE4758"/>
</linearGradient>
<path fill="#FFFFFF" stroke="url(#SVGID_17_)" stroke-width="3" stroke-miterlimit="10" d="M396.486,100.885
	c-33.049,0-62.339,18.659-80.531,47.396c-18.193-28.737-47.482-47.396-80.531-47.396c-55.193,0-99.936,52.009-99.936,116.165
	s44.743,116.165,99.936,116.165c33.049,0,62.339-18.659,80.531-47.396c18.193,28.737,47.482,47.396,80.531,47.396
	c55.193,0,99.936-52.009,99.936-116.165S451.679,100.885,396.486,100.885z"/>
<linearGradient id="SVGID_18_" gradientUnits="userSpaceOnUse" x1="293.5391" y1="264.4121" x2="240.2629" y2="211.1359">
	<stop  offset="0.0049" style="stop-color:#E9A22A"/>
	<stop  offset="1" style="stop-color:#EE4758"/>
</linearGradient>
<circle fill="#FFFFFF" stroke="url(#SVGID_18_)" stroke-width="3" stroke-miterlimit="10" cx="266.901" cy="237.774" r="36.172"/>
<linearGradient id="SVGID_19_" gradientUnits="userSpaceOnUse" x1="291.316" y1="252.429" x2="260.0039" y2="221.1169">
	<stop  offset="0.0049" style="stop-color:#E9A22A"/>
	<stop  offset="1" style="stop-color:#EE4758"/>
</linearGradient>
<circle fill="#FFFFFF" stroke="url(#SVGID_19_)" stroke-width="3" stroke-miterlimit="10" cx="275.66" cy="236.773" r="20.641"/>
<linearGradient id="SVGID_20_" gradientUnits="userSpaceOnUse" x1="264.5911" y1="227.1391" x2="245.5529" y2="208.1009">
	<stop  offset="0.0049" style="stop-color:#E9A22A"/>
	<stop  offset="1" style="stop-color:#EE4758"/>
</linearGradient>
<circle fill="#FFFFFF" stroke="url(#SVGID_20_)" stroke-width="3" stroke-miterlimit="10" cx="255.072" cy="217.62" r="11.962"/>
<linearGradient id="SVGID_21_" gradientUnits="userSpaceOnUse" x1="391.6451" y1="264.4121" x2="338.3689" y2="211.1359">
	<stop  offset="0.0049" style="stop-color:#E9A22A"/>
	<stop  offset="1" style="stop-color:#EE4758"/>
</linearGradient>
<circle fill="#FFFFFF" stroke="url(#SVGID_21_)" stroke-width="3" stroke-miterlimit="10" cx="365.007" cy="237.774" r="36.172"/>
<linearGradient id="SVGID_22_" gradientUnits="userSpaceOnUse" x1="371.905" y1="252.429" x2="340.593" y2="221.1169">
	<stop  offset="0.0049" style="stop-color:#E9A22A"/>
	<stop  offset="1" style="stop-color:#EE4758"/>
</linearGradient>
<circle fill="#FFFFFF" stroke="url(#SVGID_22_)" stroke-width="3" stroke-miterlimit="10" cx="356.249" cy="236.773" r="20.641"/>
<linearGradient id="SVGID_23_" gradientUnits="userSpaceOnUse" x1="386.3561" y1="227.1391" x2="367.3179" y2="208.1009">
	<stop  offset="0.0049" style="stop-color:#E9A22A"/>
	<stop  offset="1" style="stop-color:#EE4758"/>
</linearGradient>
<circle fill="#FFFFFF" stroke="url(#SVGID_23_)" stroke-width="3" stroke-miterlimit="10" cx="376.837" cy="217.62" r="11.962"/>
<linearGradient id="SVGID_24_" gradientUnits="userSpaceOnUse" x1="364.3465" y1="539.6295" x2="267.5615" y2="442.8445">
	<stop  offset="0.0049" style="stop-color:#E9A22A"/>
	<stop  offset="1" style="stop-color:#EE4758"/>
</linearGradient>
<ellipse fill="#FFFFFF" stroke="url(#SVGID_24_)" stroke-width="3" stroke-miterlimit="10" cx="315.954" cy="491.237" rx="72.98" ry="60.288"/>
<linearGradient id="SVGID_25_" gradientUnits="userSpaceOnUse" x1="375.8457" y1="456.3692" x2="256.0625" y2="336.586">
	<stop  offset="0.0049" style="stop-color:#E9A22A"/>
	<stop  offset="1" style="stop-color:#EE4758"/>
</linearGradient>
<path fill="#FFFFFF" stroke="url(#SVGID_25_)" stroke-width="3" stroke-miterlimit="10" d="M410.188,417.291
	c-4.43-58.661-44.918-104.604-94.234-104.604s-89.804,45.944-94.234,104.604c26.602-18.229,59.12-28.947,94.234-28.947
	S383.587,399.062,410.188,417.291z"/>
<linearGradient id="SVGID_26_" gradientUnits="userSpaceOnUse" x1="353.7213" y1="419.9248" x2="274.0251" y2="340.2285">
	<stop  offset="0.0049" style="stop-color:#E9A22A"/>
	<stop  offset="1" style="stop-color:#EE4758"/>
</linearGradient>
<path opacity="0.4" fill="#FFFFFF" stroke="url(#SVGID_26_)" stroke-width="3" stroke-miterlimit="10" enable-background="new    " d="
	M241.681,387.055c0,21.029,47.596-5.288,67.692-10.577c18.617-4.899,79.326,24.202,79.326,3.173s-59.952-53.942-79.202-53.942
	C290.246,325.709,241.681,366.026,241.681,387.055z"/>
<linearGradient id="SVGID_27_" gradientUnits="userSpaceOnUse" x1="380.3688" y1="514.0293" x2="251.5392" y2="385.1997">
	<stop  offset="0.0049" style="stop-color:#E9A22A"/>
	<stop  offset="1" style="stop-color:#EE4758"/>
</linearGradient>
<path fill="#FFFFFF" stroke="url(#SVGID_27_)" stroke-width="3" stroke-miterlimit="10" d="M315.954,575.653
	c0,0,94.654-84,94.654-147.674c0-3.606-0.154-7.167-0.42-10.688c-26.602-18.229-59.12-28.947-94.234-28.947
	s-67.632,10.718-94.234,28.947c-0.266,3.521-0.42,7.082-0.42,10.688C221.301,491.653,315.954,575.653,315.954,575.653z"/>
<g>
	<linearGradient id="SVGID_28_" gradientUnits="userSpaceOnUse" x1="337.3602" y1="543.5067" x2="327.3409" y2="533.4874">
		<stop  offset="0.0049" style="stop-color:#E9A22A"/>
		<stop  offset="1" style="stop-color:#EE4758"/>
	</linearGradient>
	<path fill="#FFFFFF" stroke="url(#SVGID_28_)" stroke-width="3" stroke-miterlimit="10" d="M336.782,540.219
		c-2.486,5.964-8.465,9.146-8.465,9.146s-1.948-6.487,0.539-12.45c2.486-5.964,6.276-10.058,8.465-9.146
		S339.268,534.256,336.782,540.219z"/>
	<linearGradient id="SVGID_29_" gradientUnits="userSpaceOnUse" x1="308.5563" y1="547.4948" x2="290.5607" y2="529.4992">
		<stop  offset="0.0049" style="stop-color:#E9A22A"/>
		<stop  offset="1" style="stop-color:#EE4758"/>
	</linearGradient>
	<path fill="#FFFFFF" stroke="url(#SVGID_29_)" stroke-width="3" stroke-miterlimit="10" d="M295.127,540.219
		c2.486,5.964,8.465,9.146,8.465,9.146s1.948-6.487-0.539-12.45c-2.486-5.964-6.276-10.058-8.465-9.146
		S292.641,534.256,295.127,540.219z"/>
</g>
<linearGradient id="SVGID_30_" gradientUnits="userSpaceOnUse" x1="549.129" y1="770.127" x2="531.825" y2="752.823">
	<stop  offset="0.0049" style="stop-color:#E9A22A"/>
	<stop  offset="1" style="stop-color:#EE4758"/>
</linearGradient>
<ellipse opacity="0.5" fill="#FFFFFF" stroke="url(#SVGID_30_)" stroke-width="3" stroke-miterlimit="10" enable-background="new    " cx="540.477" cy="761.475" rx="8.329" ry="12.692"/>
<linearGradient id="SVGID_31_" gradientUnits="userSpaceOnUse" x1="103.315" y1="771.185" x2="86.011" y2="753.881">
	<stop  offset="0.0049" style="stop-color:#E9A22A"/>
	<stop  offset="1" style="stop-color:#EE4758"/>
</linearGradient>
<ellipse opacity="0.5" fill="#FFFFFF" stroke="url(#SVGID_31_)" stroke-width="3" stroke-miterlimit="10" enable-background="new    " cx="94.663" cy="762.533" rx="8.329" ry="12.692"/>
<linearGradient id="SVGID_32_" gradientUnits="userSpaceOnUse" x1="104.885" y1="534.9661" x2="-2.2661" y2="427.815">
	<stop  offset="0.0049" style="stop-color:#E9A22A"/>
	<stop  offset="1" style="stop-color:#EE4758"/>
</linearGradient>
<path fill="#FFFFFF" stroke="url(#SVGID_32_)" stroke-width="3" stroke-miterlimit="10" d="M101.538,481.09
	c0,50.236-49.711,104.711-49.711,104.711S0,531.326,0,481.09s22.73-90.961,50.769-90.961S101.538,430.853,101.538,481.09z"/>
<linearGradient id="SVGID_33_" gradientUnits="userSpaceOnUse" x1="633.6927" y1="534.4257" x2="527.6224" y2="428.3553">
	<stop  offset="0.0049" style="stop-color:#E9A22A"/>
	<stop  offset="1" style="stop-color:#EE4758"/>
</linearGradient>
<path fill="#FFFFFF" stroke="url(#SVGID_33_)" stroke-width="3" stroke-miterlimit="10" d="M530.429,481.09
	c0,50.236,49.711,104.711,49.711,104.711s51.827-54.474,51.827-104.711s-22.73-90.961-50.769-90.961S530.429,430.853,530.429,481.09
	z"/>
</svg>
