<?xml version="1.0" encoding="utf-8"?>
<!-- Generator: Adobe Illustrator 17.0.0, SVG Export Plug-In . SVG Version: 6.00 Build 0)  -->
<!DOCTYPE svg PUBLIC "-//W3C//DTD SVG 1.1//EN" "http://www.w3.org/Graphics/SVG/1.1/DTD/svg11.dtd">
<svg version="1.1" id="Layer_1" xmlns="http://www.w3.org/2000/svg" xmlns:xlink="http://www.w3.org/1999/xlink" x="0px" y="0px"
	 width="800px" height="800px" viewBox="0 0 800 800" enable-background="new 0 0 800 800" xml:space="preserve">
<g>
	<path fill="#686868" d="M124.354,250.594l0.713-0.791l0.963-0.034c0.537-0.074,0.979-0.287,1.315-0.63
		c0.34-0.343,0.627-0.547,0.858-0.611c0.235-0.068,0.494-0.266,0.787-0.605c0.29-0.337,0.747-0.605,1.362-0.809
		c0.618-0.198,1.05-0.466,1.294-0.8c0.244-0.33,0.543-0.559,0.895-0.692c0.352-0.13,0.75-0.327,1.201-0.59l4.129-1.958
		c0.065-0.009,0.247,0.031,0.55,0.12l0.191-0.028c0.377-0.053,0.729-0.259,1.05-0.615c0.321-0.361,0.735-0.571,1.241-0.642
		c0.315-0.043,0.908-0.327,1.772-0.843l0.324,0.253c0.423-0.652,0.809-1.007,1.158-1.053l0.284-0.04
		c0.065-0.009,0.358,0.015,0.883,0.074c0.753-0.367,1.386-0.587,1.893-0.658l1.078-0.25c0.065-0.009,0.164,0.009,0.3,0.059
		c0.213-0.327,0.534-0.553,0.97-0.679l0.522-0.074l1.877-0.757l0.599,0.117c0.333-0.377,0.895-0.624,1.689-0.735l0.472-0.065
		l0.491,0.034c0.062-0.009,0.343-0.148,0.837-0.414c0.494-0.272,1.754-0.54,3.78-0.824l1.263,0.022
		c0.747-0.435,1.149-0.655,1.214-0.664l1.371,0.108l0.494-0.272l0.188-0.025c0.065-0.009,0.232,0.034,0.503,0.13l0.096-0.012
		l3.35-0.963c0.062-0.009,0.195,0.006,0.392,0.046c0.222-0.262,0.395-0.401,0.522-0.42l0.936,0.114
		c0.253-0.034,0.673-0.272,1.257-0.719l0.324,0.253l3.174-0.837l1.201-0.071l1.016-0.34c1.044-0.145,1.868,0.031,2.467,0.525
		c0.602,0.491,0.945,1.025,1.025,1.609l0.398,1.482l-0.17,0.862l0.04,0.985c-0.102,0.411-0.306,0.701-0.602,0.874
		c0.009,0.065-0.124,0.161-0.395,0.278c-0.278,0.12-0.54,0.296-0.8,0.534c-0.256,0.232-1.176,0.46-2.757,0.679
		c-0.79,0.111-1.331-0.068-1.621-0.54c-0.293-0.469-0.568-0.716-0.834-0.75l-2.162-0.587c-0.071-0.056-0.266-0.062-0.581-0.019
		l-0.383,0.052l-1.918,0.466c-0.062,0.009-0.241-0.003-0.534-0.025c-0.386,0.25-0.59,0.38-0.621,0.383l-3.542,0.296l-1.411,0.293
		l-1.022-0.052c-0.127,0.019-0.343,0.096-0.645,0.235c-0.3,0.142-0.954,0.318-1.958,0.522c-1.004,0.207-1.464,0.599-1.38,1.18
		c0.049,0.358,0.235,0.726,0.565,1.112c0.327,0.38,0.506,0.701,0.543,0.96c-0.38,0.747-0.556,1.217-0.528,1.408
		c-0.114,0.117-0.306,0.358-0.577,0.726c-0.272,0.364-0.784,0.96-1.541,1.772c-0.76,0.815-1.254,1.535-1.488,2.165
		c-0.235,0.624-0.574,0.97-1.019,1.031c-0.494,0.63-0.818,1.186-0.976,1.667l-0.324,0.442c-0.056,0.077-0.068,0.222-0.037,0.451
		c0.028,0.195-0.04,0.398-0.201,0.624l-0.266,1.22c-0.207,0.13-0.738,1.059-1.593,2.795l-0.531,0.374l-0.472,0.757l-0.667,0.093
		c-0.284,0.04-0.398,0.256-0.343,0.642l0.386,1.38c-0.417,0.491-0.716,1.109-0.902,1.859l-0.435,1.05
		c-0.571,0.769-0.849,1.189-0.84,1.254c0.022,0.164-0.198,0.902-0.658,2.22l-0.028,0.497c0.077,0.547-0.809,2.288-2.659,5.215
		c-0.232,0.661-0.29,1.624-0.179,2.896c-0.682,2.041-1.201,3.051-1.559,3.038c0.108,1.238,0.052,2.27-0.173,3.091
		s-0.494,2.019-0.806,3.594c-0.312,1.581-0.71,2.733-1.186,3.455l-0.139,0.417c-0.09,0.278-0.213,0.559-0.364,0.843
		c0.056,0.88-0.049,2.316-0.321,4.298l0.006,2.128l-0.571,2.85c-0.068,0.204-0.086,0.405-0.062,0.599
		c0.019,0.13,0.157,0.371,0.414,0.707c0.259,0.346,0.408,0.679,0.454,1c0.062,0.457,0.034,0.834-0.083,1.127
		c-0.124,0.296-0.151,0.673-0.086,1.124c0.139,1.004-0.29,1.738-1.291,2.211l-0.38,0.052l-0.982,0.238
		c-1.331,0.185-2.625-0.296-3.881-1.439c-1.254-1.146-2.041-2.85-2.359-5.11c-0.015-0.13,0.009-0.639,0.083-1.522
		c0.068-0.883,0.102-1.457,0.096-1.723c-0.006-0.262,0.037-0.537,0.127-0.831c0.09-0.293,0.096-0.701,0.025-1.217
		c-0.222-1.584-0.025-3.014,0.59-4.286c0.611-1.272,1.01-2.183,1.189-2.739c0.034-0.235,0.124-0.395,0.275-0.482
		c-0.136-0.244-0.225-0.562-0.281-0.951c-0.13-0.936,0.157-1.754,0.871-2.446c0.028-0.269,0.096-0.584,0.207-0.945
		c0.108-0.361,0.327-1.232,0.652-2.612c0.324-1.38,0.883-2.242,1.671-2.585c-0.037-0.062,0.114-0.343,0.463-0.855l-0.426-1.671
		c-0.037-0.259,0.188-0.735,0.673-1.43l0.618-1.47c0.049-0.568,0.389-1.127,1.022-1.677c0.148-0.349,0.324-0.574,0.537-0.673
		c0.012-0.13,0.093-0.553,0.235-1.266c0.142-0.713,0.531-1.634,1.164-2.761s1.229-2.288,1.788-3.486
		c0.562-1.198,1.13-1.859,1.711-1.97c0.581-0.114,0.858-0.497,0.831-1.155l0.037-1.837c0.803-0.933,1.278-1.575,1.424-1.927
		l0.556-0.871c0.065-0.469,0.188-0.794,0.374-0.967c0.185-0.176,0.405-0.513,0.658-1.007c0.253-0.497,0.593-0.957,1.019-1.377
		c0.225-1.383,1-2.665,2.322-3.838l0.642-0.929c0.429-0.852,0.8-1.436,1.112-1.76c0.309-0.324,0.519-0.726,0.63-1.204
		c0.111-0.472,0.405-0.862,0.88-1.164c0.476-0.293,0.692-0.587,0.648-0.877c-0.019-0.133-0.151-0.176-0.405-0.142
		c-0.253,0.037-0.667,0.191-1.241,0.469l-0.38,0.052l-0.828,0.315l-0.284,0.04l-0.837-0.083c-0.54,0.275-0.97,0.432-1.288,0.476
		c-0.056,0.074-0.241,0.247-0.556,0.522l-1.044,0.145l-0.488,0.664l-0.417,0.154l-1.26-0.019c-0.38,0.052-0.812,0.309-1.297,0.772
		c0.009,0.068-0.488,0.25-1.495,0.556c-1.007,0.303-1.936,0.738-2.795,1.303c-0.858,0.568-1.38,0.862-1.572,0.889l-0.88-0.074
		l-0.096,0.012c-0.411,0.059-0.763,0.321-1.053,0.79c-0.29,0.466-0.76,0.797-1.408,0.985l-0.571,0.08
		c-0.476,0.068-1.09,0.352-1.843,0.849c-0.753,0.5-1.161,0.757-1.223,0.766l-0.871,0.025c-0.346,0.312-0.642,0.534-0.899,0.667
		c-0.256,0.136-0.497,0.321-0.719,0.571c-0.225,0.244-0.457,0.435-0.698,0.565c-0.241,0.133-0.509,0.352-0.806,0.658
		c-0.296,0.306-0.54,0.469-0.732,0.494l-0.188,0.028l-0.584-0.015c-0.222,0.031-0.479,0.275-0.772,0.726
		c-0.293,0.454-0.581,0.75-0.871,0.886c-0.287,0.139-0.55,0.337-0.791,0.581c-0.241,0.247-0.5,0.411-0.781,0.482
		c-0.136,0.182-0.309,0.571-0.516,1.161c-0.207,0.587-0.506,1.115-0.895,1.581c-0.386,0.469-0.636,0.824-0.747,1.072
		c-0.111,0.244-0.229,0.377-0.355,0.395c-1.553,0.216-2.467-0.664-2.745-2.637l0.661-2.217c0.435-1.745,1.309-2.887,2.619-3.434
		c0.346-0.049,1.201-0.528,2.557-1.442L124.354,250.594z"/>
	<path fill="#686868" d="M157.898,284.456l0.306-0.59c0.8-0.306,1.278-0.704,1.439-1.186c0.062-0.241,0.741-1.192,2.032-2.859
		c1.291-1.661,2.01-2.557,2.155-2.674c0.747-2.013,1.167-3.508,1.257-4.477c0.352-0.244,0.509-0.5,0.472-0.76l0.272-0.828
		l0.411-0.157l0.164-0.222l-0.062-0.435c-0.08-0.581,0.346-2.026,1.278-4.332c0.865-2.791,1.328-4.332,1.386-4.623
		c0.056-0.284,0.188-0.719,0.398-1.291s0.503-1.658,0.877-3.261c0.374-1.606,1.065-3.316,2.069-5.138
		c0.114-0.08,0.256-0.472,0.417-1.17s0.466-1.408,0.914-2.131l0.426-1.099c0.145-0.349,0.398-0.96,0.76-1.837
		c0.361-0.874,0.707-1.575,1.041-2.097c0.327-0.525,0.559-1.059,0.695-1.606c0.133-0.547,0.327-0.954,0.581-1.22
		c0.253-0.266,0.488-0.719,0.707-1.359c0.216-0.642,0.639-1.007,1.272-1.093c1.235-0.173,2.202,0.219,2.9,1.18
		c0.698,0.954,1.102,1.822,1.21,2.6c0.012,0.099-0.08,0.821-0.278,2.168l-0.105,4.465c-0.587,0.411-0.852,0.831-0.794,1.248
		c0.238,1.717-0.161,3.582-1.204,5.611c-0.108,0.145-0.151,0.581-0.133,1.303c0.022,0.723-0.173,1.346-0.584,1.862
		c-0.414,0.519-0.735,1.34-0.963,2.461l-3.52,7.068l-0.321,0.442c-0.176,0.154-0.358,0.46-0.553,0.914l-0.794-0.133
		c-0.855,0.117-1.241,0.451-1.167,1c0.028,0.195,0.127,0.448,0.3,0.753l0.012,0.093c0.003,0.034-0.929,1.896-2.804,5.589
		c-0.099,0.21-0.232,0.871-0.398,1.986l-0.463,1.547c-0.534,1.031-0.874,2.01-1.019,2.934c-0.145,0.929-0.401,1.698-0.769,2.31
		c-0.429,1.544-0.639,2.35-0.63,2.415c0.028,0.195,0.136,0.278,0.324,0.25c0.191-0.028,0.574-0.574,1.152-1.646
		c0.574-1.068,1.072-1.797,1.485-2.183c0.414-0.389,0.741-0.896,0.976-1.522l0.429-0.405c0.117-0.083,0.358-0.315,0.726-0.698
		l0.488,0.034c0.229-0.232,0.355-0.482,0.383-0.747c0.028-0.269,0.096-0.472,0.204-0.624c0.812-0.213,1.281-0.59,1.417-1.136
		c0.136-0.543,0.343-0.84,0.627-0.88c0.256-0.034,0.547-0.38,0.874-1.038c0.33-0.652,0.84-1.22,1.535-1.695
		c0.692-0.476,1.201-0.886,1.525-1.226c0.324-0.343,1.013-0.794,2.066-1.352c1.053-0.559,1.769-0.865,2.152-0.917l0.284-0.04
		l0.395,0.046l0.698-0.198c1.109-0.154,2.263,0.006,3.458,0.479c1.198,0.476,1.81,1.39,1.834,2.739l0.04,3.06l-0.191,2.452
		c-0.009,0.398-0.142,1.288-0.401,2.677c-0.256,1.39-0.374,2.177-0.346,2.375l-0.062,0.948l0.364,1.235l0.049,1.031
		c0.046,0.324,0.225,0.46,0.54,0.417c0.127-0.019,0.432-0.355,0.92-1.016c0.355,0.015,0.658-0.225,0.911-0.723
		c0.253-0.497,0.611-1.022,1.081-1.584c-0.015-0.127,0.173-0.278,0.565-0.451c0.395-0.17,0.911-0.627,1.547-1.374
		c0.083-0.312,0.611-1.019,1.584-2.124c0.97-1.109,1.924-1.995,2.862-2.652l0.232-0.426c0.457-0.627,0.908-0.973,1.349-1.034
		c0.442-0.059,0.698,0.154,0.766,0.636c0.043,0.324,0.012,0.676-0.096,1.053c-0.108,0.38-0.154,0.855-0.139,1.433
		c0.015,0.574-0.188,1.433-0.605,2.581l-0.124,0.509c-0.145,0.584-0.367,0.945-0.67,1.084s-0.605,0.457-0.911,0.942
		c-0.3,0.488-0.994,1.004-2.078,1.553c-0.371,1.038-0.698,1.581-0.982,1.621l-0.908-0.269c-0.587,0.642-0.84,1.254-0.76,1.834
		c-0.723,0.828-1.146,1.368-1.272,1.612l-0.963,0.037c-0.253,0.034-0.327,0.408-0.229,1.121c0.009,0.065-0.284,0.324-0.88,0.79
		c-0.596,0.463-1.05,0.862-1.356,1.201c-0.309,0.34-1.031,0.587-2.168,0.747c-0.127,0.015-0.333-0.068-0.618-0.262
		c-0.284-0.188-0.679-0.327-1.195-0.423c-0.513-0.093-0.905-0.426-1.176-0.997c-0.275-0.574-0.543-1.013-0.812-1.322
		c-0.272-0.309-0.42-0.562-0.448-0.753l-0.04-0.985l-0.377-0.988l0.33-0.738c-0.253-0.426-0.389-0.716-0.414-0.88l0.065-3.029
		c0.049-2.183,0.142-3.613,0.275-4.289c0.049-0.074,0.056-0.275,0.012-0.599l-0.266-1.195v-0.698
		c-0.068-0.482-0.262-0.723-0.584-0.704c-0.321,0.009-0.522-0.043-0.602-0.17c-0.438-0.133-0.692-0.198-0.753-0.188
		c-0.253,0.034-0.448,0.269-0.584,0.698c-0.13,0.432-0.333,0.834-0.605,1.198l-1.214-0.025l0.012,0.096
		c0.037,0.256-0.324,0.818-1.075,1.683c-0.766,0.303-1.39,0.818-1.868,1.547c-0.253,0.034-0.655,0.346-1.201,0.933
		c-0.55,0.59-0.914,0.926-1.096,1.019l-0.269,0.828l-0.729,0.349c-0.13,0.676-0.596,1.173-1.393,1.479l-0.346,0.991
		c-0.658,0.154-1.068,0.565-1.232,1.235c-0.167,0.664-0.312,1.007-0.442,1.022c-0.062,0.009-0.17-0.015-0.324-0.077
		c-0.154-0.059-0.296-0.08-0.423-0.062c-0.698,0.096-1,0.679-0.914,1.757c0.015,0.133-0.528,0.979-1.633,2.554
		s-1.701,2.381-1.791,2.424c-0.093,0.049-0.229,0.405-0.411,1.071c-0.182,0.67-0.488,1.192-0.92,1.563
		c-0.432,0.377-0.753,0.676-0.967,0.902c-0.207,0.229-0.377,0.352-0.503,0.367c-0.664,0.093-1.272-0.315-1.819-1.229
		c-0.55-0.914-0.824-1.386-0.828-1.417l0.142-1.059l-0.216-0.858c-0.003-0.031,0.102-0.716,0.321-2.05
		c0.216-1.331,0.528-2.396,0.933-3.196c0.408-0.8,0.636-2.044,0.692-3.733c-1.288,1.167-2.078,1.776-2.362,1.816
		c-0.633,0.09-1.01-0.29-1.127-1.13C156.783,287.281,157.083,285.824,157.898,284.456z"/>
	<path fill="#686868" d="M205.476,275.692l0.883-0.96c0.75-0.17,1.102-0.633,1.065-1.386c-0.043-0.75,0.389-1.473,1.294-2.155
		l0.454-0.908c0.408-0.55,1.615-1.362,3.625-2.436c0.494-0.398,0.818-0.738,0.973-1.025c0.053-0.074,0.111-0.114,0.176-0.12
		l0.784,0.086c0.414-0.056,0.926-0.244,1.544-0.562c0.614-0.315,1.226-0.516,1.828-0.599l1.976-0.377
		c0.127-0.019,0.405,0.043,0.824,0.185c0.423,0.139,0.92,0.167,1.488,0.086c0.698-0.096,1.38,0.139,2.057,0.701
		c0.676,0.568,1.053,1.124,1.13,1.677c0.139,1.004-0.225,2.091-1.09,3.267c-0.868,1.176-1.593,1.871-2.177,2.084
		c-0.457,0.627-0.821,1.028-1.084,1.214c-0.266,0.185-0.525,0.454-0.784,0.803c-0.256,0.349-0.479,0.537-0.67,0.565
		c-0.127,0.015-0.225-0.009-0.3-0.083c-0.077-0.074-0.176-0.099-0.303-0.083c-0.506,0.071-0.973,0.781-1.396,2.124l-0.868,0.022
		c-0.485,0.432-0.778,0.871-0.88,1.309c-0.099,0.445-0.401,0.698-0.905,0.769c-1.004,1.365-1.708,2.069-2.121,2.128
		c-0.062,0.009-0.29-0.025-0.689-0.102c-0.207,0.358-0.287,0.716-0.238,1.071c0.056,0.389-0.167,0.648-0.664,0.784l-0.534,0.67
		l-0.488-0.034l-0.806,1.152c-0.472,0.065-0.942,0.3-1.402,0.692c-0.009,0.398-0.034,0.905-0.077,1.519
		c-0.043,0.618-0.062,0.957-0.049,1.022c0.13,0.939,1.031,1.291,2.711,1.056l2.233-0.658c0.599-0.083,1.139-0.324,1.618-0.723
		c0.476-0.392,1.016-0.633,1.618-0.716c0.188-0.025,0.466-0.13,0.828-0.315l0.5,0.13c0.154-0.519,0.506-1.01,1.053-1.485
		c0.547-0.472,0.994-0.729,1.343-0.778l0.435-0.355c0.071-0.408,0.225-0.695,0.463-0.858l0.33-0.392
		c0.219-0.296,0.435-0.457,0.658-0.488l0.664-0.093l0.176-0.124c0.266-0.896,0.726-1.461,1.386-1.705
		c0.661-0.238,1.053-0.534,1.183-0.883c0.13-0.346,0.411-0.581,0.846-0.707c0.435-0.13,0.775-0.398,1.025-0.812
		c0.247-0.414,0.568-0.812,0.97-1.198c0.398-0.383,0.673-0.67,0.824-0.855c0.151-0.188,0.29-0.29,0.417-0.306
		c0.191-0.028,0.306,0.105,0.346,0.395c0.043,0.29,0.127,0.429,0.253,0.411c0.124-0.019,0.179-0.09,0.161-0.222
		c-0.019-0.127-0.071-0.287-0.161-0.469l-0.049-0.34c-0.068-0.485,0.142-0.846,0.627-1.078l1.939-1.708
		c-0.031-0.686,0.096-1.105,0.38-1.266c0.284-0.148,0.497-0.312,0.636-0.482c0.136-0.167,0.3-0.266,0.491-0.29
		c0.411-0.059,0.652,0.154,0.719,0.642l-0.062,1.297l0.42,1.275c0.025,0.191-0.086,0.482-0.343,0.862
		c-0.253,0.383-0.411,0.933-0.472,1.646c-0.062,0.723-0.213,1.13-0.457,1.229l-0.284,0.04c-0.485,0.695-0.886,1.121-1.201,1.278
		c-0.318,0.161-0.553,0.398-0.701,0.723l-1.352,2.115c-0.272,0.367-0.5,0.695-0.686,0.985c-0.185,0.29-0.343,0.445-0.469,0.463
		l-0.435-0.337c-0.009-0.065-0.074-0.09-0.201-0.074c-0.318,0.046-0.488,0.272-0.516,0.667c-0.022,0.401-0.142,0.763-0.355,1.09
		c-0.889,0.587-1.448,1.09-1.677,1.516l-0.272,0.139l-0.855,0.12c-0.411,0.056-0.655,0.411-0.726,1.062
		c-0.071,0.658-0.469,1.084-1.201,1.281c-0.729,0.201-1.232,0.472-1.51,0.806c-0.056,0.071-0.188,0.157-0.398,0.253
		c-0.213,0.099-0.624,0.417-1.223,0.963l-3.789,2.01c-0.296,0.207-0.491,0.315-0.584,0.327l-1.303,0.383
		c-0.191,0.028-0.398-0.077-0.624-0.309c-0.229-0.235-0.374-0.346-0.435-0.337l-0.815,0.408c-0.608,0.287-1.195,0.463-1.766,0.543
		c-0.318,0.043-0.682-0.019-1.093-0.195c-0.411-0.173-0.732-0.29-0.97-0.355c-0.917,0.127-1.671-0.51-2.251-1.911l-0.559,0.173
		c-0.127,0.015-0.713-1.068-1.763-3.264c-0.225-0.235-0.553-0.374-0.979-0.432c-0.426-0.056-0.676-0.346-0.75-0.862
		c-0.201-1.457-0.031-2.476,0.519-3.066c0.547-0.587,0.834-1.013,0.862-1.281l0.312-2.615c0.111-0.111,0.225-0.46,0.34-1.034
		l0.806-2.189C204.954,277.27,205.161,276.665,205.476,275.692z M215.113,271.385l-0.531,0.371c-0.117,0.08-0.448,0.417-0.997,1.004
		c-0.547,0.587-1.093,1.078-1.633,1.464c-0.547,0.392-1.034,1.275-1.47,2.656c-0.438,1.383-0.642,2.168-0.615,2.362
		c0.028,0.195,0.133,0.275,0.324,0.25l1.513-0.954c0.559-0.374,1.072-0.824,1.529-1.352c0.46-0.525,1.133-1.176,2.026-1.961
		l0.327-0.442c0.046-0.139,0.306-0.414,0.778-0.828c0.479-0.411,0.818-0.797,1.025-1.155l0.448-0.262
		c0.417-0.948,0.889-1.559,1.417-1.828c0.522-0.275,0.775-0.503,0.75-0.698c-0.056-0.386-0.383-0.543-0.985-0.46
		c-0.253,0.037-0.611,0.253-1.072,0.648l-1.093,0.151c-0.127,0.019-0.448,0.259-0.963,0.726L215.113,271.385z"/>
</g>
<path fill="#686868" d="M660.403,464.583c-11.287-0.599-17.296-0.938-18.025-1.018c-9.563-1.199-14.59-3.576-15.085-7.132
	l-0.074-0.532c-1.04-7.458,4.11-11.981,15.451-13.562c7.265-1.013,14.442,1.237,21.536,6.751l20.921-24.864
	c-5.45-5.379-13.926-9.169-25.428-11.359c-10.014-1.856-19.44-2.074-28.273-0.665c-8.48,1.365-16.097,4.413-22.842,9.145
	c-15.317,10.629-21.816,24.27-19.494,40.923c0.443,3.179,1.138,6.139,2.072,8.892c-4.612-11.277-12.043-20.799-22.321-28.547
	c-15.352-11.569-32.765-16.001-52.236-13.287c-19.476,2.715-35.051,11.745-46.743,27.084c-6.447,8.463-10.692,17.554-12.758,27.266
	l-16.187-116.117l-0.271,0.038c1.42-7.515,1.57-15.386,0.422-23.623c-2.71-19.44-11.743-34.943-27.091-46.513
	s-32.765-16.001-52.232-13.287c-19.476,2.715-35.055,11.746-46.743,27.084c-6.08,7.981-10.193,16.523-12.377,25.614l-15.968-114.549
	l-35.208,4.908l11.125,79.807c-11.436-4.43-23.322-5.789-35.663-4.069c-19.476,2.715-35.059,11.746-46.743,27.084
	c-11.688,15.338-16.175,32.726-13.465,52.166c2.734,19.614,11.771,35.207,27.123,46.776c15.344,11.57,32.845,15.985,52.499,13.246
	c19.467-2.714,35.002-11.784,46.587-27.207c7.633-10.163,12.145-21.205,13.573-33.115c4.632,11.187,12.011,20.622,22.178,28.281
	c15.344,11.57,32.841,15.986,52.495,13.246c11.375-1.586,21.398-5.356,30.085-11.278l5.591,40.105
	c-11.436-4.43-23.322-5.789-35.662-4.069c-19.476,2.715-35.059,11.746-46.743,27.084c-11.688,15.338-16.175,32.726-13.465,52.166
	c2.734,19.614,11.771,35.207,27.124,46.776c15.344,11.57,32.845,15.985,52.499,13.246c19.467-2.714,35.002-11.784,46.587-27.207
	c7.884-10.497,12.452-21.927,13.716-34.288c4.598,11.669,12.139,21.461,22.634,29.37c15.348,11.57,32.845,15.985,52.495,13.246
	c19.472-2.714,35.003-11.775,46.594-27.191c11.586-15.415,16.029-32.844,13.319-52.282c-0.738-5.293-1.961-10.284-3.637-14.993
	c4.569,10.626,13.253,17.684,26.058,21.179c5.811,1.54,12.82,2.547,21.017,3.031c6.551,0.353,10.825,0.569,12.826,0.651
	c5.206,1.082,8.363,3.622,9.463,7.622l0.148,1.064c0.544,3.899-1.342,7.233-5.652,10.001c-3.325,2.088-7.2,3.443-11.628,4.06
	l-0.797,0.111c-10.811,1.507-21.627-1.592-32.456-9.295l-16.341,28.56c6.941,4.453,15.58,7.766,25.908,9.937
	s19.666,2.766,28.021,1.785c20.981-2.382,36.18-11.293,45.59-26.728c4.704-7.718,6.464-15.838,5.276-24.365l-0.112-0.802
	C696.395,477.857,683.324,465.736,660.403,464.583z M264.386,393.507c-5.757,7.692-13.411,12.197-22.971,13.529
	c-9.568,1.334-18.205-0.9-25.931-6.713c-7.725-5.81-12.248-13.48-13.576-23.008s0.931-18.097,6.785-25.709
	s13.556-12.09,23.124-13.423c9.386-1.308,17.943,0.943,25.664,6.754s12.239,13.39,13.543,22.744
	C272.353,377.209,270.134,385.819,264.386,393.507z M418.646,538.742c-5.756,7.692-13.411,12.197-22.971,13.529
	c-9.568,1.334-18.206-0.9-25.931-6.713c-7.725-5.81-12.248-13.48-13.576-23.008s0.931-18.097,6.785-25.709
	s13.556-12.09,23.124-13.423c9.385-1.308,17.943,0.943,25.664,6.754s12.239,13.39,13.543,22.744
	C426.613,522.445,424.395,531.054,418.646,538.742z M376.248,388.241c-9.568,1.334-18.206-0.9-25.931-6.713
	c-7.721-5.811-12.248-13.48-13.576-23.008s0.935-18.098,6.785-25.709c5.854-7.612,13.556-12.09,23.124-13.423
	c9.39-1.309,17.943,0.943,25.668,6.754c7.721,5.811,12.235,13.391,13.539,22.744c1.328,9.528-0.89,18.137-6.639,25.825
	C393.467,382.403,385.808,386.909,376.248,388.241z M554.083,519.863c-5.752,7.691-13.415,12.197-22.975,13.53
	c-9.564,1.333-18.205-0.9-25.927-6.713c-7.721-5.811-12.248-13.48-13.576-23.008s0.935-18.098,6.785-25.709
	c5.85-7.612,13.556-12.09,23.12-13.423c9.39-1.309,17.947,0.943,25.668,6.754c7.725,5.81,12.235,13.391,13.539,22.744
	C562.046,503.566,559.831,512.174,554.083,519.863z"/>
<circle fill="none" stroke="#686868" stroke-width="5" stroke-miterlimit="10" cx="400.149" cy="400.378" r="345.844"/>
<circle fill="none" stroke="#686868" stroke-width="5" stroke-miterlimit="10" cx="400.149" cy="400.378" r="395.25"/>
</svg>
