<?xml version="1.0" encoding="utf-8"?>
<!-- Generator: Adobe Illustrator 17.0.0, SVG Export Plug-In . SVG Version: 6.00 Build 0)  -->
<!DOCTYPE svg PUBLIC "-//W3C//DTD SVG 1.1//EN" "http://www.w3.org/Graphics/SVG/1.1/DTD/svg11.dtd">
<svg version="1.1" id="Capa_1" xmlns="http://www.w3.org/2000/svg" xmlns:xlink="http://www.w3.org/1999/xlink" x="0px" y="0px"
	 width="800px" height="800px" viewBox="0 0 800 800" enable-background="new 0 0 800 800" xml:space="preserve">
<g>
	<path fill="#F62036" d="M399.999,0C179.439,0,0,179.439,0,399.999c0,111.159,46.829,218.218,128.478,293.729
		c6.601,6.105,16.901,5.701,23.006-0.898c6.105-6.604,5.703-16.901-0.901-23.006C75.576,600.455,32.56,502.109,32.56,399.999
		c0-202.605,164.833-367.439,367.439-367.439s367.439,164.833,367.439,367.439S602.604,767.438,399.999,767.438
		c-8.989,0-16.28,7.291-16.28,16.28s7.291,16.28,16.28,16.28c220.562,0,399.999-179.439,399.999-399.999S620.561,0,399.999,0z"/>
	<path fill="#F62036" d="M228.42,244.7h343.16c8.989,0,16.28-7.291,16.28-16.28s-7.291-16.28-16.28-16.28H228.42
		c-8.989,0-16.28,7.291-16.28,16.28S219.431,244.7,228.42,244.7z"/>
	<path fill="#F62036" d="M228.42,416.279h343.16c8.989,0,16.28-7.291,16.28-16.28s-7.291-16.28-16.28-16.28H228.42
		c-8.989,0-16.28,7.291-16.28,16.28S219.431,416.279,228.42,416.279z"/>
	<path fill="#F62036" d="M587.86,571.58c0-8.989-7.291-16.28-16.28-16.28H228.42c-8.989,0-16.28,7.291-16.28,16.28
		s7.291,16.28,16.28,16.28h343.16C580.569,587.86,587.86,580.569,587.86,571.58z"/>
</g>
</svg>
